<?xml version="1.0" encoding="UTF-8"?>
<!DOCTYPE svg PUBLIC "-//W3C//DTD SVG 1.1//EN" "http://www.w3.org/Graphics/SVG/1.1/DTD/svg11.dtd">
<!-- Creator: CorelDRAW 2021 (64-Bit) -->
<svg xmlns="http://www.w3.org/2000/svg" xml:space="preserve" width="297mm" height="210mm" version="1.1" style="shape-rendering:geometricPrecision; text-rendering:geometricPrecision; image-rendering:optimizeQuality; fill-rule:evenodd; clip-rule:evenodd"
viewBox="0 0 29700 21000"
 xmlns:xlink="http://www.w3.org/1999/xlink"
 xmlns:xodm="http://www.corel.com/coreldraw/odm/2003">
 <defs>
  <style type="text/css">
   <![CDATA[
    .str0 {stroke:none;stroke-width:20;stroke-miterlimit:22.9256}
    .str1 {stroke:white;stroke-width:20;stroke-miterlimit:22.9256}
    .fil0 {fill:none}
    .fil1 {fill:white}
    .fil2 {fill:white;fill-rule:nonzero}
   ]]>
  </style>
 </defs>
 <g id="Слой_x0020_1">
  <metadata id="CorelCorpID_0Corel-Layer"/>
  <rect class="fil0 str0" x="14719.5" y="624.06" width="14888.71" height="10824"/>
  <g id="_2918345648864">
   <g>
    <polygon class="fil1 str1" points="19589.81,4690.19 20663.03,5331.91 20666.72,4089.04 "/>
    <polygon class="fil1 str1" points="19036.7,3725.55 19025.42,4413.76 21202.89,3105.03 21191.6,5620.96 21744.43,5959.43 21767,2146.04 "/>
    <polygon class="fil1 str1" points="22309.65,3403.17 22302.23,4671.7 23370.47,4070.82 "/>
    <polygon class="fil1 str1" points="22316.92,5287.26 22309.51,5977.18 25032.12,4382.19 25024.7,3766.45 22331.76,2171.46 22346.6,2802.04 24446.05,4018.68 "/>
   </g>
   <path class="fil2 str1" d="M16923.92 6371.24l0 141.38 -582.87 0 0 1666.78 -163.28 0 0 -1666.78 -579.99 0 0 -141.38 1326.14 0zm595.7 0l582.47 0c217.03,0 377.83,48.78 482,146.34 88.88,83.09 133.12,198.84 133.12,347.24 0,167.84 -60.77,296.81 -182.72,386.11 -109.96,79.79 -258.78,119.88 -446.87,119.88l-404.71 0 0 808.59 -163.29 0 0 -1808.16zm163.29 136.42l0 729.21 394.79 0c312.52,0 468.78,-123.18 468.78,-369.56 0,-239.77 -151.3,-359.65 -454.31,-359.65l-409.26 0zm1675.04 -136.42l153.78 0 0 1061.17c0,161.63 -5.79,349.31 -16.95,563.44l23.98 0c96.32,-198.83 182.3,-367.91 257.95,-507.63l622.56 -1116.98 253.41 0 0 1808.16 -154.2 0 0 -1124c0,-104.17 1.66,-285.24 4.96,-542.78l-23.97 0c-103.34,203.39 -189.33,368.74 -257.95,495.23l-653.16 1171.55 -210.41 0 0 -1808.16zm3338.1 0l0 1808.16 -163.7 0 0 -1669.26 -955.34 0 0 1669.26 -163.71 0 0 -1808.16 1282.75 0zm757.74 0l153.78 0 0 1061.17c0,161.63 -5.79,349.31 -16.95,563.44l23.97 0c96.33,-198.83 182.31,-367.91 257.96,-507.63l622.56 -1116.98 253.41 0 0 1808.16 -154.2 0 0 -1124c0,-104.17 1.66,-285.24 4.96,-542.78l-23.97 0c-103.34,203.39 -189.34,368.74 -257.95,495.23l-653.16 1171.55 -210.41 0 0 -1808.16zm3343.06 0l0 1808.16 -163.7 0 0 -883 -960.31 0 0 883 -163.7 0 0 -1808.16 163.7 0 0 783.78 960.31 0 0 -783.78 163.7 0zm1868.51 0l0 141.38 -947.07 0 0 1666.78 -163.7 0 0 -1808.16 1110.77 0z"/>
  </g>
 </g>
</svg>
